<?xml version="1.0" encoding="UTF-8"?>
<svg version="1.1" xmlns="http://www.w3.org/2000/svg" width="512" height="512">
<path d="M0 0 C12.61130801 9.38515945 14.3221286 21.80183228 17.18359375 36.4375 C20.98610977 61.10808088 20.98610977 61.10808088 35.6171875 80.01953125 C46.99394717 87.13649963 58.79278564 92.90789483 71.04638672 98.37548828 C86.70587563 105.41598692 93.77582434 112.97186017 100.12158203 128.99316406 C104.90043258 141.76487155 108.50908361 154.93451657 111.99813843 168.10598755 C112.44895741 169.80382952 112.90520875 171.50023999 113.36734009 173.19503784 C120.20093981 198.40517166 120.20093981 198.40517166 115.18359375 210.125 C110.56711943 217.88789817 104.4585479 222.23451467 95.9140625 224.96875 C89.95613546 226.40069813 85.18703359 226.11048689 79.41015625 224.09765625 C78.61432129 223.8231665 77.81848633 223.54867676 76.99853516 223.26586914 C76.10013916 222.94863892 76.10013916 222.94863892 75.18359375 222.625 C75.19406738 223.32842529 75.20454102 224.03185059 75.21533203 224.7565918 C75.42492057 241.42418686 75.16170616 258.05501454 74.49188232 274.71060181 C74.41148356 276.7336728 74.33582522 278.75693785 74.26495361 280.78036499 C74.1624108 283.64864837 74.04098291 286.51551668 73.9140625 289.3828125 C73.88578873 290.24305527 73.85751495 291.10329803 73.8283844 291.98960876 C73.57620591 297.06753615 72.95102569 300.85756806 69.18359375 304.625 C62.0839506 305.20693796 62.0839506 305.20693796 58.94140625 303.17578125 C56.31169199 299.35977367 56.71678669 296.02522219 56.87109375 291.5 C56.8865625 290.56607422 56.90203125 289.63214844 56.91796875 288.66992188 C57.03375257 282.82283889 57.28776773 276.98223363 57.55395508 271.14038086 C57.74359894 266.72928616 57.87982641 262.31673513 58.01953125 257.90380859 C58.13144165 254.70353515 58.29462538 251.50829107 58.47265625 248.31103516 C58.74442165 243.35753615 58.93009161 238.40552376 59.07495117 233.44677734 C59.14651162 231.46463334 59.2449815 229.4832501 59.37231445 227.50390625 C60.23960106 214.88945699 60.23960106 214.88945699 54.7734375 203.92724609 C51.20100606 200.13871675 47.33240401 196.76707261 43.18359375 193.625 C39.03687031 195.48962295 36.68889662 198.27572151 33.87109375 201.75 C32.89095922 202.93126698 31.91049107 204.11225721 30.9296875 205.29296875 C30.45772949 205.8657959 29.98577148 206.43862305 29.49951172 207.02880859 C22.19481259 215.88931377 15.6511307 223.49078572 4.18359375 226.625 C1.37890625 226.7265625 1.37890625 226.7265625 -0.81640625 226.625 C-0.11257813 227.718125 0.59125 228.81125 1.31640625 229.9375 C47.04112297 301.36518087 79.02073144 380.76361369 102.49609375 462.0625 C102.92245117 463.50786133 102.92245117 463.50786133 103.35742188 464.98242188 C104.88985083 470.48722511 106.00088298 475.89720853 105.18359375 481.625 C99.08947726 490.98382175 85.48055336 493.57456812 75.37109375 496.0625 C74.28538086 496.33376709 73.19966797 496.60503418 72.08105469 496.88452148 C66.41591155 498.20210835 61.86223839 499.08544486 56.18359375 497.625 C53.5359453 495.94815598 53.2288233 494.77361139 52.30859375 491.75 C52.15381178 487.88045084 52.76598957 486.62649661 55.18359375 483.625 C57.67829518 482.70796344 59.79479355 482.11836026 62.37109375 481.625 C63.80305852 481.31171631 65.23402839 480.99385672 66.6640625 480.671875 C67.77273682 480.4253418 67.77273682 480.4253418 68.90380859 480.17382812 C72.7198665 479.25516265 76.44704435 478.0716423 80.18359375 476.875 C81.23389771 476.54048828 81.23389771 476.54048828 82.30541992 476.19921875 C83.93274126 475.67841041 85.5583746 475.15233175 87.18359375 474.625 C85.73149753 466.11611606 83.33232364 457.92681381 80.80859375 449.6875 C80.48196747 448.61713501 80.48196747 448.61713501 80.14874268 447.52514648 C65.33671171 399.11151422 46.93019362 352.15572637 24.67480469 306.67480469 C23.68422454 304.64888341 22.69786137 302.62089455 21.71582031 300.59082031 C14.24743319 285.16014472 6.04888014 270.29653824 -2.81640625 255.625 C-3.28852539 254.84092773 -3.76064453 254.05685547 -4.24707031 253.24902344 C-12.41951083 239.73653349 -21.49073751 226.99547873 -31.37109375 214.6796875 C-32.73508215 212.97579144 -34.08649471 211.26085088 -35.38671875 209.5078125 C-39.98956062 203.52687426 -46.5727052 199.71027027 -52.81640625 195.625 C-53.08453125 196.20765625 -53.35265625 196.7903125 -53.62890625 197.390625 C-57.33775895 204.36912416 -63.58697921 209.26673357 -69.77734375 213.9609375 C-71.90896862 215.46829217 -71.90896862 215.46829217 -72.81640625 217.625 C-71.99140625 217.83125 -71.16640625 218.0375 -70.31640625 218.25 C-62.86830638 221.17603923 -58.0004003 225.90525198 -53.81640625 232.625 C-51.58939384 239.30603724 -51.91069044 246.56123979 -54.75390625 253 C-57.88425497 258.55413301 -62.69788453 262.27967126 -68.765625 264.26171875 C-77.05242868 265.72966683 -85.1922673 264.42209286 -93.29589844 262.60449219 C-100.39696948 261.07497614 -104.68484993 262.79048178 -111.00390625 266 C-111.6995166 266.35231689 -112.39512695 266.70463379 -113.11181641 267.06762695 C-141.48400357 281.70858526 -167.87574538 301.85237918 -189.9440918 324.91297913 C-191.98219033 327.04058038 -194.0342959 329.15448765 -196.08563232 331.26931763 C-197.60534577 332.85048676 -199.10040603 334.45262394 -200.59619141 336.05639648 C-207.42348707 343.20484777 -207.42348707 343.20484777 -211.20654297 344.34594727 C-214.45676481 344.41929657 -216.57004397 343.77897642 -219.31640625 342.0625 C-221.49712288 338.51883548 -221.56972348 336.73400306 -220.81640625 332.625 C-215.98411468 325.67712855 -209.19004202 319.8124431 -203.21142578 313.8347168 C-201.57813177 312.19924118 -199.95302155 310.55592292 -198.328125 308.91210938 C-191.80167407 302.35110472 -185.07729764 296.37490639 -177.81640625 290.625 C-176.78862107 289.76189168 -175.76519874 288.89350305 -174.75 288.015625 C-162.18809833 277.24266394 -148.76175662 267.88448401 -134.453125 259.58251953 C-130.31110658 257.17446702 -126.4619716 254.76772875 -122.81640625 251.625 C-123.46867187 251.07972656 -124.1209375 250.53445313 -124.79296875 249.97265625 C-133.84576692 242.16161358 -140.94604615 233.90884107 -142.09765625 221.625 C-142.36597121 212.32341463 -141.39852499 202.55942153 -136.44140625 194.5 C-134.51900786 191.03385744 -134.88532993 189.03075323 -135.94140625 185.25 C-136.56175173 183.37345491 -137.18668533 181.49841975 -137.81640625 179.625 C-140.57019371 168.43773846 -140.96673031 157.21220707 -140.9140625 145.73828125 C-140.91264755 144.55525925 -140.9112326 143.37223724 -140.90977478 142.15336609 C-140.90422537 138.41471716 -140.89168254 134.6761305 -140.87890625 130.9375 C-140.8738847 128.38606858 -140.86932295 125.83463621 -140.86523438 123.28320312 C-140.85427256 117.06378122 -140.83758565 110.84439506 -140.81640625 104.625 C-141.74380615 104.48618408 -142.67120605 104.34736816 -143.62670898 104.2043457 C-147.12354947 103.56921348 -149.71835849 102.42335983 -152.87890625 100.8125 C-153.88050781 100.31105469 -154.88210937 99.80960937 -155.9140625 99.29296875 C-164.23718569 94.50969338 -169.66370374 87.29411043 -172.34375 78.06640625 C-174.08144396 69.09071432 -173.12347839 60.71744258 -168.81640625 52.625 C-163.68131645 45.17158523 -156.83882171 39.46068036 -147.81640625 37.625 C-145.77685547 37.63842773 -145.77685547 37.63842773 -143.62109375 37.80859375 C-132.76166606 38.73185689 -132.76166606 38.73185689 -123.44140625 33.9375 C-122.70664063 33.21046875 -121.971875 32.4834375 -121.21484375 31.734375 C-113.66561247 25.09498593 -102.65521361 23.46337952 -92.94140625 23.5625 C-91.78898438 23.57152344 -90.6365625 23.58054687 -89.44921875 23.58984375 C-88.58039063 23.60144531 -87.7115625 23.61304687 -86.81640625 23.625 C-86.79578125 22.696875 -86.77515625 21.76875 -86.75390625 20.8125 C-85.51028956 12.62121143 -79.90426674 6.05358968 -73.50390625 1.1875 C-53.06615106 -12.48426783 -20.68015839 -13.58302686 0 0 Z M-64.69140625 14.5 C-68.29339229 18.10198604 -70.74172646 21.63848577 -71.81640625 26.625 C-70.98238281 26.90472656 -70.14835938 27.18445313 -69.2890625 27.47265625 C-57.84215268 31.55053592 -49.25601077 37.10419158 -42.81640625 47.625 C-38.72635979 56.33965827 -37.76895439 64.87758031 -37.5 74.40625 C-37.4792189 75.10520386 -37.45843781 75.80415771 -37.43702698 76.52429199 C-37.3724209 78.72444259 -37.31306716 80.92469696 -37.25390625 83.125 C-37.21063608 84.63021842 -37.16701932 86.13542693 -37.12304688 87.640625 C-37.01683306 91.30197744 -36.91532429 94.96344234 -36.81640625 98.625 C-22.75749456 94.08457327 -12.08343797 84.56562533 -1.31640625 74.8125 C-0.5594043 74.12849121 -0.5594043 74.12849121 0.21289062 73.43066406 C4.11060344 69.86459853 4.11060344 69.86459853 7.18359375 65.625 C7.11242578 62.89075394 7.11242578 62.89075394 6.3046875 59.9609375 C6.04494141 58.84686523 5.78519531 57.73279297 5.51757812 56.58496094 C5.22173828 55.40192383 4.92589844 54.21888672 4.62109375 53 C4.03572124 50.55486384 3.45108763 48.10955068 2.8671875 45.6640625 C2.57569824 44.46555664 2.28420898 43.26705078 1.98388672 42.03222656 C1.28521662 39.05765673 0.66180251 36.08762303 0.09375 33.0859375 C-0.06343506 32.27850098 -0.22062012 31.47106445 -0.38256836 30.63916016 C-0.66099797 29.18606155 -0.92484595 27.73004944 -1.17016602 26.27099609 C-2.25992965 20.84165 -4.80179655 17.2889414 -8.81640625 13.625 C-24.77574716 3.4521652 -48.95153978 4.2348697 -64.69140625 14.5 Z M-115.81640625 47.625 C-124.28035993 57.8005532 -124.98635468 68.35878978 -124.87890625 81.0625 C-124.87439453 82.08021484 -124.86988281 83.09792969 -124.86523438 84.14648438 C-124.85353062 86.63938509 -124.83713473 89.13216074 -124.81640625 91.625 C-115.86502395 96.10069115 -100.70032634 91.5259588 -91.515625 88.55859375 C-77.83134463 83.18072481 -66.99272073 75.67686926 -60.77734375 62.078125 C-59.26397962 58.21474015 -58.53576819 55.83457096 -58.81640625 51.625 C-63.25359579 44.89764812 -73.24801902 41.5870842 -80.765625 40.00390625 C-93.07781045 38.47473597 -106.0456279 39.13322911 -115.81640625 47.625 Z M-154.12890625 60.1875 C-157.07503178 64.44301466 -157.3435069 68.58400101 -156.81640625 73.625 C-154.40254412 80.10431413 -149.97537718 84.54551454 -143.81640625 87.625 C-142.82640625 87.625 -141.83640625 87.625 -140.81640625 87.625 C-140.76742187 86.42746094 -140.7184375 85.22992188 -140.66796875 83.99609375 C-140.21135202 73.76808983 -139.37480855 63.74704989 -137.81640625 53.625 C-145.27449772 53.11064886 -148.96033597 54.46016536 -154.12890625 60.1875 Z M-53.81640625 80.625 C-54.95509406 81.96767734 -56.07670923 83.32483977 -57.19140625 84.6875 C-61.77282986 89.89886936 -66.80725632 93.23740556 -72.81640625 96.625 C-73.56148437 97.07617188 -74.3065625 97.52734375 -75.07421875 97.9921875 C-90.17866605 106.46541403 -107.90106428 107.84155488 -124.81640625 107.625 C-124.86780099 114.29203943 -124.90242576 120.95902642 -124.92626953 127.6262207 C-124.93622669 129.88665679 -124.94979728 132.14708034 -124.96728516 134.4074707 C-125.75061061 167.96390774 -125.75061061 167.96390774 -110.04296875 196.453125 C-105.05890492 201.13204207 -99.25315882 205.23887947 -92.81640625 207.625 C-81.49790957 206.71883637 -71.92055184 194.5591754 -64.81640625 186.625 C-62.97847473 184.16230399 -61.23105165 181.72696099 -59.63671875 179.1015625 C-57.16929227 177.1000878 -54.97390056 177.10015514 -51.86816406 177.25537109 C-48.46945462 177.86765645 -46.33924637 179.53642358 -43.62890625 181.625 C-42.76918213 182.2742041 -42.76918213 182.2742041 -41.89208984 182.93652344 C-40.59523243 183.91988084 -39.30526161 184.9123629 -38.02099609 185.91210938 C-35.53699384 187.84209385 -33.03170128 189.74228564 -30.5234375 191.640625 C-26.90747871 194.38047599 -23.29921871 197.12984072 -19.69921875 199.890625 C-16.57430781 202.28307743 -13.44771279 204.67308421 -10.30859375 207.046875 C-9.68065918 207.5222168 -9.05272461 207.99755859 -8.40576172 208.48730469 C-4.96357934 210.95129392 -2.49828552 210.96562555 1.62109375 210.4375 C9.82983012 207.83472993 15.71322567 199.05184895 20.8515625 192.5546875 C22.87293073 190.01528018 24.95103515 187.54126914 27.0703125 185.08349609 C31.92946107 179.43943491 36.57801902 173.65137969 41.12109375 167.75 C41.66475586 167.04858887 42.20841797 166.34717773 42.76855469 165.62451172 C50.08043347 156.15357637 50.08043347 156.15357637 51.18359375 144.625 C47.57358363 142.21832659 46.44105454 141.89529336 42.18359375 142.625 C39.2594886 144.67680101 36.81629558 147.15352701 34.30859375 149.6875 C32.95833246 151.01304552 31.60677116 152.33726811 30.25390625 153.66015625 C29.58294922 154.32192871 28.91199219 154.98370117 28.22070312 155.66552734 C25.59495269 158.19120723 22.85990907 160.57224431 20.10302734 162.95288086 C16.57589758 166.02554834 13.17911941 169.23984715 9.765625 172.4375 C8.25083394 173.84694588 6.71789733 175.23682057 5.18359375 176.625 C4.5596875 177.23859375 3.93578125 177.8521875 3.29296875 178.484375 C-0.08851821 180.31288277 -3.14704959 180.43312724 -6.81640625 179.625 C-10.05065422 177.9486448 -12.79237258 175.77269305 -15.62890625 173.5 C-17.29792859 172.21842632 -18.96720719 170.93718631 -20.63671875 169.65625 C-21.91337402 168.66044922 -21.91337402 168.66044922 -23.21582031 167.64453125 C-27.43367635 164.36908014 -31.71562458 161.18232733 -36.00390625 158 C-36.76872314 157.4210498 -37.53354004 156.84209961 -38.3215332 156.24560547 C-50.04868997 147.49944949 -60.43092686 145.51711107 -74.87890625 144.5 C-76.03068359 144.41363281 -77.18246094 144.32726562 -78.36914062 144.23828125 C-81.18451848 144.02800407 -84.00019284 143.82371636 -86.81640625 143.625 C-88.00091935 140.07146071 -88.08282519 137.35486522 -87.81640625 133.625 C-86.29734302 131.60598443 -85.3003021 130.76155771 -82.85864258 130.07250977 C-82.1292749 129.98799561 -81.39990723 129.90348145 -80.6484375 129.81640625 C-79.43124023 129.65495117 -79.43124023 129.65495117 -78.18945312 129.49023438 C-76.50213861 129.29074257 -74.81464147 129.09278848 -73.12695312 128.89648438 C-66.18988767 127.97263563 -60.35634815 126.23006862 -55.37890625 121.125 C-52.49601874 116.51237999 -52.68075271 112.12005431 -52.71875 106.796875 C-52.72016495 106.04786926 -52.7215799 105.29886353 -52.72303772 104.52716064 C-52.72861966 102.14306588 -52.7411688 99.75906622 -52.75390625 97.375 C-52.75892359 95.75520969 -52.76348609 94.13541791 -52.76757812 92.515625 C-52.77858317 88.55204688 -52.79583534 84.58853955 -52.81640625 80.625 C-53.14640625 80.625 -53.47640625 80.625 -53.81640625 80.625 Z M13.18359375 82.625 C12.56097656 83.29982422 12.56097656 83.29982422 11.92578125 83.98828125 C5.51081366 90.68507796 -2.44168154 98.43763765 -10.81640625 102.625 C-10.81640625 112.525 -10.81640625 122.425 -10.81640625 132.625 C-7.08956426 128.89815801 -4.50528481 125.44064812 -1.69140625 121.0625 C-1.21711182 120.32741211 -0.74281738 119.59232422 -0.25415039 118.83496094 C10.93050244 103.0191137 10.93050244 103.0191137 15.93359375 85.375 C15.3206118 83.42436642 15.3206118 83.42436642 13.18359375 82.625 Z M29.18359375 96.625 C28.92368652 97.18147217 28.6637793 97.73794434 28.39599609 98.3112793 C19.8969766 116.32794806 10.00821838 133.26450159 -2.97265625 148.44921875 C-5.45672844 151.38063445 -7.63777595 154.46247215 -9.81640625 157.625 C-7.83640625 159.275 -5.85640625 160.925 -3.81640625 162.625 C-1.47958147 160.62896217 0.85367953 158.62908331 3.18359375 156.625 C3.77398437 156.11839844 4.364375 155.61179688 4.97265625 155.08984375 C8.67562726 151.88322842 12.29471889 148.60051184 15.87451172 145.2578125 C35.52299618 126.93669738 35.52299618 126.93669738 48.07421875 127.2734375 C59.01920419 128.51093585 65.54445419 136.60516948 72.72949219 144.13330078 C75.69574716 147.17625207 78.9486996 149.87665497 82.18359375 152.625 C83.85345007 154.10056486 85.52007275 155.5797965 87.18359375 157.0625 C87.94671875 157.74183594 88.70984375 158.42117187 89.49609375 159.12109375 C90.05296875 159.61738281 90.60984375 160.11367187 91.18359375 160.625 C92.3137221 157.23461496 92.05127504 156.39503806 91.03125 153.08203125 C90.75418213 152.18049316 90.47711426 151.27895508 90.19165039 150.35009766 C88.58996299 145.41642073 86.9278662 140.51014142 85.18359375 135.625 C84.89871094 134.8098291 84.61382812 133.9946582 84.3203125 133.15478516 C81.37430256 125.07594629 78.31295173 119.21194949 70.24609375 115.375 C68.10734485 114.44602997 65.9540446 113.56872567 63.78710938 112.70751953 C58.41856364 110.47532413 53.22629188 107.8477588 47.99609375 105.3125 C46.9088501 104.7959082 45.82160645 104.27931641 44.70141602 103.74707031 C43.15538696 103.01182129 43.15538696 103.01182129 41.578125 102.26171875 C40.65878174 101.82561279 39.73943848 101.38950684 38.79223633 100.94018555 C36.18359375 99.625 36.18359375 99.625 33.47143555 97.96020508 C31.33719544 96.45698378 31.33719544 96.45698378 29.18359375 96.625 Z M-37.81640625 115.625 C-38.81583395 117.81919809 -39.06519817 119.74005785 -39.35546875 122.12890625 C-40.15011415 126.4321131 -42.53647066 129.9440353 -44.81640625 133.625 C-42.56800965 135.08585662 -40.31778452 136.54375136 -38.06640625 138 C-37.4321875 138.4125 -36.79796875 138.825 -36.14453125 139.25 C-35.21640625 139.84941406 -35.21640625 139.84941406 -34.26953125 140.4609375 C-33.42116699 141.01080322 -33.42116699 141.01080322 -32.55566406 141.57177734 C-30.70207651 142.69423336 -28.75458979 143.65590823 -26.81640625 144.625 C-26.81640625 134.065 -26.81640625 123.505 -26.81640625 112.625 C-30.77656534 112.625 -34.41997867 113.58325441 -37.81640625 115.625 Z M65.18359375 159.625 C63.63626061 161.80560462 62.20801176 163.97708906 60.80859375 166.25 C60.03042036 167.49248352 59.25177816 168.73467355 58.47265625 169.9765625 C58.09399414 170.5840332 57.71533203 171.19150391 57.32519531 171.81738281 C55.66025436 174.45365801 53.9259293 177.03934221 52.18359375 179.625 C54.1333628 180.88119722 54.1333628 180.88119722 56.171875 180.05859375 C62.31115512 177.4274737 66.3826961 174.99860857 69.03125 168.56640625 C69.82309395 166.19271407 69.82309395 166.19271407 70.18359375 162.625 C69.09684381 160.53515769 69.09684381 160.53515769 67.18359375 159.625 C66.52359375 159.625 65.86359375 159.625 65.18359375 159.625 Z M83.18359375 175.625 C82.14197851 177.15270236 81.12604516 178.69793381 80.12109375 180.25 C77.15645496 184.57445245 74.21066362 187.54383687 69.8828125 190.46875 C68.03607964 191.64797857 68.03607964 191.64797857 66.18359375 193.625 C68.19672268 195.55033835 70.21844252 197.4650547 72.24609375 199.375 C72.80748047 199.91382813 73.36886719 200.45265625 73.94726562 201.0078125 C78.09780178 204.89745781 82.59494965 209.06368308 88.40625 209.97265625 C93.6762963 209.15585502 96.40405928 207.40453447 100.18359375 203.625 C101.88521244 200.22176261 102.11300649 197.2460886 101.18359375 193.625 C98.57492556 189.89495861 95.43015564 186.80142012 92.18359375 183.625 C91.41015625 182.82835937 90.63671875 182.03171875 89.83984375 181.2109375 C87.06514728 178.36281965 87.06514728 178.36281965 84.18359375 175.625 C83.85359375 175.625 83.52359375 175.625 83.18359375 175.625 Z M-123.81640625 205.625 C-126.22594203 212.55241536 -127.36670041 219.80576609 -124.37890625 226.75 C-120.95641402 232.78536264 -115.11591202 237.79022241 -108.81640625 240.625 C-108.00069407 238.06348317 -107.18874494 235.50087372 -106.37890625 232.9375 C-106.14880859 232.21626953 -105.91871094 231.49503906 -105.68164062 230.75195312 C-104.51942955 227.06319625 -103.47197852 223.44540393 -102.81640625 219.625 C-103.9765625 218.98884766 -103.9765625 218.98884766 -105.16015625 218.33984375 C-111.11200511 214.98824569 -116.4117126 211.60043604 -121.390625 206.91015625 C-122.62028765 205.51341222 -122.62028765 205.51341222 -123.81640625 205.625 Z M-87.81640625 227.625 C-91.11839981 233.5685884 -92.77159288 238.91619838 -93.81640625 245.625 C-87.16958613 248.55742064 -80.03763074 249.50292284 -72.81640625 248.625 C-70.0603133 247.20455419 -70.0603133 247.20455419 -68.81640625 244.625 C-67.98290674 241.66840127 -67.98290674 241.66840127 -68.81640625 238.625 C-73.76028969 232.9748475 -81.04946429 230.54663221 -87.81640625 227.625 Z " fill="#000000" transform="translate(341.81640625,8.375)"/>
<path d="M0 0 C2.875 2.125 2.875 2.125 5 5 C5.63482339 9.48776141 4.78800239 11.96255267 2.10522461 15.58984375 C1.46532593 16.41162109 1.46532593 16.41162109 0.8125 17.25 C-0.10697564 18.48422245 -1.02623561 19.71860559 -1.9453125 20.953125 C-2.4393457 21.60603516 -2.93337891 22.25894531 -3.44238281 22.93164062 C-6.19536586 26.58732595 -8.87853423 30.29349606 -11.5625 34 C-12.11019043 34.7542627 -12.65788086 35.50852539 -13.22216797 36.28564453 C-18.08424345 43.02410702 -22.61127289 49.94628356 -27 57 C-26.44352783 57.05945801 -25.88705566 57.11891602 -25.3137207 57.18017578 C14.56484711 61.60795665 49.14604741 79.19573357 83.27929688 99.39599609 C89.45997464 103.03984506 95.6974615 106.57163208 102 110 C102.62181152 110.34224609 103.24362305 110.68449219 103.88427734 111.03710938 C142.69239812 132.20337018 188.48274727 134.05235289 231.74609375 132.6953125 C233.21714317 132.65078697 233.21714317 132.65078697 234.71791077 132.60536194 C239.54249226 132.45439983 244.3638563 132.2751965 249.18579102 132.05541992 C250.94676019 131.9909039 252.70774584 131.92683525 254.46875 131.86328125 C255.67723854 131.7947142 255.67723854 131.7947142 256.91014099 131.72476196 C260.49332756 131.61186873 262.54115415 131.67052966 265.49804688 133.79370117 C267.72183263 137.06033834 267.60957112 139.13938293 267 143 C265.25 145.875 265.25 145.875 262 148 C253.29419984 149.50268273 244.18116629 149.17420064 235.375 149.203125 C234.69280396 149.20595238 234.01060791 149.20877975 233.30773926 149.21169281 C229.6833459 149.22658046 226.05899113 149.23587042 222.43457031 149.24023438 C219.50670632 149.24457815 216.57914382 149.25832391 213.65136719 149.28125 C179.09149138 149.54613765 139.42868453 149.11647884 108.36987305 132.03076172 C97.67059463 126.28555487 88.61515978 124.85135147 76.54342651 124.77160645 C71.59450584 124.7341655 66.64952455 124.56103682 61.703125 124.40625 C60.71034042 124.37815247 59.71755585 124.35005493 58.69468689 124.32110596 C25.159553 123.2977216 -23.92568329 120.93856695 -49.56640625 96.640625 C-54.72140458 90.74117187 -57.00708007 85.08940641 -56.58203125 77.19140625 C-55.41288351 70.78071027 -52.30556635 65.51287809 -49 60 C-48.46858398 59.1116748 -47.93716797 58.22334961 -47.38964844 57.30810547 C-36.60752408 39.44185808 -24.91806218 22.38160059 -12 6 C-11.2884375 5.07703125 -10.576875 4.1540625 -9.84375 3.203125 C-6.86256173 -0.35914234 -4.54684288 -0.53492269 0 0 Z M-40 78 C-39.90610134 81.47425049 -39.14020821 82.84248523 -36.81640625 85.453125 C-18.49883172 102.01770003 14.24236069 104.15990429 37.5625 106.75 C38.70340088 106.87785889 39.84430176 107.00571777 41.01977539 107.13745117 C48.70313375 107.93097194 56.2785032 108.14309373 64 108 C59.20538331 104.01818297 54.19819948 101.23792288 48.6875 98.375 C47.68074219 97.85156006 46.67398438 97.32812012 45.63671875 96.78881836 C3.30425849 74.21004294 3.30425849 74.21004294 -40 78 Z " fill="#000000" transform="translate(109,363)"/>
</svg>
